<svg width="50" height="50" viewBox="0 0 50 50" fill="none" xmlns="http://www.w3.org/2000/svg">
<g id="Binance svg">
<rect width="50" height="50" rx="25" fill="#222222"/>
<g id="Group">
<path id="Vector" d="M14.04 25L9.56 29.48L5 25L9.56 20.44L14.04 25ZM25 14.04L32.76 21.8L37.32 17.24L25 5L12.76 17.24L17.32 21.8L25 14.04ZM40.44 20.44L35.96 25L40.52 29.56L45 25L40.44 20.44ZM25 35.96L17.24 28.2L12.68 32.76L25 45L37.24 32.76L32.76 28.2L25 35.96ZM25 29.48L29.56 24.92L25 20.44L20.44 25L25 29.48Z" fill="#F0B90B"/>
</g>
</g>
</svg>
