<svg width="16" height="19" viewBox="0 0 16 19" fill="none" xmlns="http://www.w3.org/2000/svg">
<path d="M5.30765 15C4.80252 15 4.37496 14.825 4.02498 14.475C3.67498 14.125 3.49998 13.6974 3.49998 13.1923V1.8077C3.49998 1.30257 3.67498 0.875 4.02498 0.525C4.37496 0.175 4.80252 0 5.30765 0H13.6922C14.1973 0 14.6249 0.175 14.9749 0.525C15.3249 0.875 15.4999 1.30257 15.4999 1.8077V13.1923C15.4999 13.6974 15.3249 14.125 14.9749 14.475C14.6249 14.825 14.1973 15 13.6922 15H5.30765ZM5.30765 13.5H13.6922C13.7691 13.5 13.8397 13.4679 13.9038 13.4038C13.9679 13.3397 13.9999 13.2692 13.9999 13.1923V1.8077C13.9999 1.73077 13.9679 1.66024 13.9038 1.59613C13.8397 1.53203 13.7691 1.49998 13.6922 1.49998H5.30765C5.23072 1.49998 5.1602 1.53203 5.0961 1.59613C5.03198 1.66024 4.99993 1.73077 4.99993 1.8077V13.1923C4.99993 13.2692 5.03198 13.3397 5.0961 13.4038C5.1602 13.4679 5.23072 13.5 5.30765 13.5ZM1.80768 18.4999C1.30256 18.4999 0.875 18.3249 0.525 17.9749C0.175 17.6249 0 17.1973 0 16.6922V3.8077H1.49998V16.6922C1.49998 16.7692 1.53202 16.8397 1.59613 16.9038C1.66024 16.9679 1.73076 17 1.80768 17H11.6922V18.4999H1.80768Z" fill="#A78B8B"/>
</svg>
