<svg width="1366" height="275" viewBox="0 0 1366 275" fill="none" xmlns="http://www.w3.org/2000/svg">
<path d="M26.82 184V65H80.88C93.8 65 105.19 67.4933 115.05 72.48C124.91 77.3533 132.617 84.21 138.17 93.05C143.723 101.89 146.5 112.373 146.5 124.5C146.5 136.513 143.723 146.997 138.17 155.95C132.617 164.79 124.91 171.703 115.05 176.69C105.19 181.563 93.8 184 80.88 184H26.82ZM54.36 161.39H79.52C87.4533 161.39 94.31 159.917 100.09 156.97C105.983 153.91 110.517 149.603 113.69 144.05C116.977 138.497 118.62 131.98 118.62 124.5C118.62 116.907 116.977 110.39 113.69 104.95C110.517 99.3967 105.983 95.1467 100.09 92.2C94.31 89.14 87.4533 87.61 79.52 87.61H54.36V161.39ZM10.84 132.66V114.3H84.28V132.66H10.84ZM147.759 184L200.799 65H227.999L281.209 184H252.309L208.789 78.94H219.669L175.979 184H147.759ZM174.279 158.5L181.589 137.59H242.789L250.269 158.5H174.279ZM214.399 219.7C211.112 219.7 208.336 218.68 206.069 216.64C203.802 214.6 202.669 211.823 202.669 208.31C202.669 204.797 203.802 201.907 206.069 199.64C208.336 197.487 211.112 196.41 214.399 196.41C217.686 196.41 220.462 197.487 222.729 199.64C224.996 201.907 226.129 204.797 226.129 208.31C226.129 211.823 224.996 214.6 222.729 216.64C220.462 218.68 217.686 219.7 214.399 219.7ZM293.555 184V65H321.095V184H293.555ZM433.181 184L381.841 65H411.591L456.471 170.4H438.961L484.521 65H511.891L460.381 184H433.181ZM521.827 184V65H549.367V184H521.827ZM602.938 112.94H660.228V134.36H602.938V112.94ZM604.978 161.9H669.748V184H577.608V65H667.538V87.1H604.978V161.9ZM623.508 219.7C620.221 219.7 617.445 218.68 615.178 216.64C612.911 214.6 611.778 211.823 611.778 208.31C611.778 204.797 612.911 201.907 615.178 199.64C617.445 197.487 620.221 196.41 623.508 196.41C626.795 196.41 629.571 197.487 631.838 199.64C634.105 201.907 635.238 204.797 635.238 208.31C635.238 211.823 634.105 214.6 631.838 216.64C629.571 218.68 626.795 219.7 623.508 219.7ZM588.488 55.31L610.928 30.83H634.388L656.828 55.31H637.448L613.988 34.91H631.328L607.868 55.31H588.488ZM716.311 184V87.44H678.231V65H781.931V87.44H743.851V184H716.311ZM883.993 186.04C874.473 186.04 865.35 184.793 856.623 182.3C847.897 179.693 840.87 176.35 835.543 172.27L844.893 151.53C849.993 155.157 856 158.16 862.913 160.54C869.94 162.807 877.023 163.94 884.163 163.94C889.603 163.94 893.967 163.43 897.253 162.41C900.653 161.277 903.147 159.747 904.733 157.82C906.32 155.893 907.113 153.683 907.113 151.19C907.113 148.017 905.867 145.523 903.373 143.71C900.88 141.783 897.593 140.253 893.513 139.12C889.433 137.873 884.9 136.74 879.913 135.72C875.04 134.587 870.11 133.227 865.123 131.64C860.25 130.053 855.773 128.013 851.693 125.52C847.613 123.027 844.27 119.74 841.663 115.66C839.17 111.58 837.923 106.367 837.923 100.02C837.923 93.22 839.737 87.0433 843.363 81.49C847.103 75.8233 852.657 71.3467 860.023 68.06C867.503 64.66 876.853 62.96 888.073 62.96C895.553 62.96 902.92 63.8667 910.173 65.68C917.427 67.38 923.83 69.9867 929.383 73.5L920.883 94.41C915.33 91.2367 909.777 88.9133 904.223 87.44C898.67 85.8533 893.23 85.06 887.903 85.06C882.577 85.06 878.213 85.6833 874.813 86.93C871.413 88.1767 868.977 89.82 867.503 91.86C866.03 93.7867 865.293 96.0533 865.293 98.66C865.293 101.72 866.54 104.213 869.033 106.14C871.527 107.953 874.813 109.427 878.893 110.56C882.973 111.693 887.45 112.827 892.323 113.96C897.31 115.093 902.24 116.397 907.113 117.87C912.1 119.343 916.633 121.327 920.713 123.82C924.793 126.313 928.08 129.6 930.573 133.68C933.18 137.76 934.483 142.917 934.483 149.15C934.483 155.837 932.613 161.957 928.873 167.51C925.133 173.063 919.523 177.54 912.043 180.94C904.677 184.34 895.327 186.04 883.993 186.04ZM1006.17 186.04C989.285 186.04 976.081 181.337 966.561 171.93C957.041 162.523 952.281 149.093 952.281 131.64V65H979.821V130.62C979.821 141.953 982.145 150.113 986.791 155.1C991.438 160.087 997.955 162.58 1006.34 162.58C1014.73 162.58 1021.24 160.087 1025.89 155.1C1030.54 150.113 1032.86 141.953 1032.86 130.62V65H1060.06V131.64C1060.06 149.093 1055.3 162.523 1045.78 171.93C1036.26 181.337 1023.06 186.04 1006.17 186.04ZM1045.95 82.68V65H1050.54C1053.71 65 1056.21 64.0367 1058.02 62.11C1059.83 60.07 1060.74 57.4633 1060.74 54.29C1060.74 52.25 1060.4 50.38 1059.72 48.68C1059.15 46.8667 1058.36 45.3367 1057.34 44.09L1072.98 38.31C1074.68 40.5767 1075.98 43.1267 1076.89 45.96C1077.91 48.7933 1078.42 51.91 1078.42 55.31C1078.42 63.81 1075.87 70.4967 1070.77 75.37C1065.78 80.2433 1058.81 82.68 1049.86 82.68H1045.95ZM1011.44 57.01L1003.11 48.17C1006.4 46.5833 1008.66 44.94 1009.91 43.24C1011.16 41.54 1011.78 39.7267 1011.78 37.8C1011.78 35.6467 1011.04 33.9467 1009.57 32.7C1008.1 31.34 1006.17 30.66 1003.79 30.66C1000.39 30.66 997.048 31.7367 993.761 33.89L988.151 23.18C990.758 21.2533 993.648 19.8367 996.821 18.93C1000.11 17.91 1003.39 17.4 1006.68 17.4C1012.69 17.4 1017.56 19.1 1021.3 22.5C1025.15 25.7867 1027.08 30.15 1027.08 35.59C1027.08 40.4633 1025.78 44.6567 1023.17 48.17C1020.56 51.6833 1016.65 54.63 1011.44 57.01ZM1162.23 156.8L1160.7 125.01L1217.65 65H1248.25L1196.91 120.25L1181.61 136.57L1162.23 156.8ZM1137.58 184V65H1164.95V184H1137.58ZM1219.01 184L1176.68 132.15L1194.7 112.6L1251.14 184H1219.01ZM1284.2 184V135.38L1290.49 152.04L1238.13 65H1267.37L1307.49 131.81H1290.66L1330.95 65H1357.98L1305.62 152.04L1311.74 135.38V184H1284.2ZM1282.5 55.31L1305.45 30.83H1334.01L1303.24 55.31H1282.5Z" fill="#CDCDCD" fill-opacity="0.6"/>
<path d="M10.5022 254.467L1355.5 251" stroke="#6B0E01" stroke-width="5" stroke-linecap="round"/>
</svg>
