<svg width="50" height="50" viewBox="0 0 50 50" fill="none" xmlns="http://www.w3.org/2000/svg">
<g id="Binance svg">
<rect width="50" height="50" rx="25" fill="#222222"/>
<g id="Group">
<path id="Vector" d="M42.1082 7L27.2974 17.9861L30.0541 11.4918L42.1082 7Z" fill="#E17726" stroke="#E17726" stroke-width="0.25" stroke-linecap="round" stroke-linejoin="round"/>
<path id="Vector_2" d="M7.89179 7L22.5945 18.0943L19.9458 11.546L7.89179 7ZM36.7566 32.4898L32.8107 38.5511L41.2972 40.8782L43.7296 32.6522C43.6756 32.6522 36.7566 32.4898 36.7566 32.4898ZM6.32422 32.6522L8.75665 40.8782L17.1891 38.5511L13.2431 32.4898L6.32422 32.6522Z" fill="#E27625" stroke="#E27625" stroke-width="0.25" stroke-linecap="round" stroke-linejoin="round"/>
<path id="Vector_3" d="M16.7027 22.3155L14.3784 25.8874L22.7027 26.2121L22.4325 17.2284L16.7027 22.3155ZM33.2973 22.3155L27.4595 17.1202L27.2433 26.2662L35.6217 25.8874C35.6217 25.8332 33.2973 22.3155 33.2973 22.3155ZM17.1892 38.5511L22.2703 36.1158L17.8919 32.7063L17.1892 38.5511ZM27.7838 36.0616L32.8108 38.497L32.1081 32.6522C32.1622 32.7063 27.7838 36.0616 27.7838 36.0616Z" fill="#E27625" stroke="#E27625" stroke-width="0.25" stroke-linecap="round" stroke-linejoin="round"/>
<path id="Vector_4" d="M32.8106 38.5511L27.7836 36.1158L28.216 39.417L28.1619 40.8241L32.8106 38.5511ZM17.189 38.5511L21.8917 40.77L21.8376 39.3629L22.27 36.0617L17.189 38.5511Z" fill="#D5BFB2" stroke="#D5BFB2" stroke-width="0.25" stroke-linecap="round" stroke-linejoin="round"/>
<path id="Vector_5" d="M21.9459 30.5416L17.7837 29.2968L20.7567 27.9439L21.9459 30.5416ZM28.054 30.5416L29.2972 27.9439L32.2702 29.2968L28.054 30.5416Z" fill="#233447" stroke="#233447" stroke-width="0.25" stroke-linecap="round" stroke-linejoin="round"/>
<path id="Vector_6" d="M17.1893 38.5511L17.9461 32.4898L13.2974 32.6522C13.2434 32.6522 17.1893 38.5511 17.1893 38.5511ZM32.1082 32.4898L32.8109 38.5511L36.7569 32.6522L32.1082 32.4898ZM35.6217 25.8333L27.2434 26.2121L28.0001 30.4874L29.2434 27.8898L32.2163 29.2427C32.2704 29.2968 35.6217 25.8333 35.6217 25.8333ZM17.7839 29.2968L20.7569 27.9439L22.0001 30.5416L22.7569 26.2662L14.3785 25.8874L17.7839 29.2968Z" fill="#CC6228" stroke="#CC6228" stroke-width="0.25" stroke-linecap="round" stroke-linejoin="round"/>
<path id="Vector_7" d="M14.3784 25.8333L17.8919 32.6522L17.7838 29.2427C17.7838 29.2968 14.3784 25.8333 14.3784 25.8333ZM32.2703 29.2968L32.1081 32.7063L35.6217 25.8874C35.6217 25.8333 32.2703 29.2968 32.2703 29.2968ZM22.7568 26.2121L21.946 30.4874L22.919 35.5746L23.1352 28.8639L22.7568 26.2121ZM27.2973 26.2121L26.8649 28.8639L27.0811 35.5746L28.0541 30.4874L27.2973 26.2121Z" fill="#E27525" stroke="#E27525" stroke-width="0.25" stroke-linecap="round" stroke-linejoin="round"/>
<path id="Vector_8" d="M28.054 30.5416L27.081 35.6287L27.7837 36.1158L32.108 32.7063L32.2702 29.2968L28.054 30.5416ZM17.7837 29.2968L17.8918 32.7063L22.2702 36.1158L22.9729 35.6287L21.9999 30.5416L17.7837 29.2968Z" fill="#F5841F" stroke="#F5841F" stroke-width="0.25" stroke-linecap="round" stroke-linejoin="round"/>
<path id="Vector_9" d="M28.1619 40.77L28.216 39.3629L27.8376 39.0382H22.216L21.8376 39.3629L21.8917 40.77L17.189 38.5511L18.8646 39.9041L22.216 42.177H27.9457L31.2971 39.8499L32.9187 38.497L28.1619 40.77Z" fill="#C0AC9D" stroke="#C0AC9D" stroke-width="0.25" stroke-linecap="round" stroke-linejoin="round"/>
<path id="Vector_10" d="M27.7838 36.0617L27.0811 35.5746H22.973L22.2703 36.0617L21.8379 39.3629L22.2163 39.0382H27.8379L28.2163 39.3629L27.7838 36.0617Z" fill="#161616" stroke="#161616" stroke-width="0.25" stroke-linecap="round" stroke-linejoin="round"/>
<path id="Vector_11" d="M42.7568 18.7437L44 12.6824L42.1081 7L27.7838 17.6614L33.2973 22.3155L41.0811 24.5885L42.8108 22.5861L42.0541 22.045L43.2432 20.9626L42.3243 20.259L43.5135 19.339L42.7568 18.7437ZM6 12.6824L7.24324 18.7437L6.48649 19.339L7.67568 20.259L6.75676 20.9626L7.94595 22.045L7.18919 22.5861L8.91892 24.5885L16.7027 22.3155L22.2162 17.6614L7.89189 7L6 12.6824Z" fill="#763E1A" stroke="#763E1A" stroke-width="0.25" stroke-linecap="round" stroke-linejoin="round"/>
<path id="Vector_12" d="M41.081 24.5885L33.2972 22.3156L35.6215 25.8333L32.108 32.6522L36.7566 32.5981H43.6756L41.081 24.5885ZM16.7026 22.3156L8.91881 24.5885L6.32422 32.6522H13.2431L17.8918 32.7063L14.3783 25.8874L16.7026 22.3156ZM27.2972 26.2121L27.7837 17.6072L30.0539 11.4918H19.9458L22.2161 17.6072L22.7026 26.2121L22.9188 28.918V35.5746H27.081V28.918L27.2972 26.2121Z" fill="#F5841F" stroke="#F5841F" stroke-width="0.25" stroke-linecap="round" stroke-linejoin="round"/>
</g>
</g>
</svg>
