<svg width="31" height="63" viewBox="0 0 31 63" fill="none" xmlns="http://www.w3.org/2000/svg">
<mask id="path-1-outside-1_620_299" maskUnits="userSpaceOnUse" x="0.131836" y="0.13205" width="30" height="62" fill="black">
<rect fill="white" x="0.131836" y="0.13205" width="30" height="62"/>
<path fill-rule="evenodd" clip-rule="evenodd" d="M25.5282 36.9207L15.1318 4.13205L4.73543 36.9207C2.49554 39.4913 1.13184 42.8967 1.13184 46.632C1.13184 54.6402 7.39985 61.132 15.1318 61.132C22.8638 61.132 29.1318 54.6402 29.1318 46.632C29.1318 42.8967 27.7681 39.4913 25.5282 36.9207Z"/>
</mask>
<path fill-rule="evenodd" clip-rule="evenodd" d="M25.5282 36.9207L15.1318 4.13205L4.73543 36.9207C2.49554 39.4913 1.13184 42.8967 1.13184 46.632C1.13184 54.6402 7.39985 61.132 15.1318 61.132C22.8638 61.132 29.1318 54.6402 29.1318 46.632C29.1318 42.8967 27.7681 39.4913 25.5282 36.9207Z" fill="#F3D69A"/>
<path d="M15.1318 4.13205L16.0851 3.82981L15.1318 0.823463L14.1786 3.82981L15.1318 4.13205ZM25.5282 36.9207L24.575 37.223L24.6378 37.421L24.7743 37.5777L25.5282 36.9207ZM4.73543 36.9207L5.48937 37.5777L5.62586 37.421L5.68866 37.223L4.73543 36.9207ZM14.1786 4.43429L24.575 37.223L26.4815 36.6185L16.0851 3.82981L14.1786 4.43429ZM5.68866 37.223L16.0851 4.43429L14.1786 3.82981L3.7822 36.6185L5.68866 37.223ZM2.13184 46.632C2.13184 43.1434 3.40473 39.9701 5.48937 37.5777L3.98149 36.2638C1.58635 39.0125 0.131836 42.6501 0.131836 46.632H2.13184ZM15.1318 60.132C7.98492 60.132 2.13184 54.1213 2.13184 46.632H0.131836C0.131836 55.1591 6.81478 62.132 15.1318 62.132V60.132ZM28.1318 46.632C28.1318 54.1213 22.2788 60.132 15.1318 60.132V62.132C23.4489 62.132 30.1318 55.1591 30.1318 46.632H28.1318ZM24.7743 37.5777C26.8589 39.9701 28.1318 43.1434 28.1318 46.632H30.1318C30.1318 42.6501 28.6773 39.0125 26.2822 36.2638L24.7743 37.5777Z" fill="#D1A040" mask="url(#path-1-outside-1_620_299)"/>
<circle cx="15.1318" cy="47.132" r="12" fill="#8E0105"/>
</svg>
