<svg width="40" height="40" viewBox="0 0 40 40" fill="none" xmlns="http://www.w3.org/2000/svg">
<g id="walletconnect 1" clip-path="url(#clip0_560_750)">
<path id="Vector" fill-rule="evenodd" clip-rule="evenodd" d="M19.8835 0C30.866 0 39.767 8.90097 39.767 19.8835C39.767 30.866 30.866 39.767 19.8835 39.767C8.90097 39.767 0 30.866 0 19.8835C0 8.90097 8.90097 0 19.8835 0Z" fill="url(#paint0_radial_560_750)"/>
<path id="Vector_2" d="M12.6371 15.3554C16.6371 11.4485 23.1302 11.4485 27.1302 15.3554L27.6118 15.8291C27.8138 16.0233 27.8138 16.3417 27.6118 16.5359L25.9652 18.1437C25.8642 18.2446 25.7011 18.2446 25.6001 18.1437L24.94 17.499C22.1439 14.7728 17.6234 14.7728 14.8273 17.499L14.1205 18.1903C14.0196 18.2913 13.8564 18.2913 13.7555 18.1903L12.1089 16.5825C11.907 16.3884 11.907 16.0699 12.1089 15.8757L12.6371 15.3554ZM30.54 18.6796L32.0079 20.1087C32.2099 20.3029 32.2099 20.6214 32.0079 20.8155L25.3982 27.2699C25.1962 27.4641 24.8701 27.4641 24.6759 27.2699L19.9846 22.6874C19.938 22.6408 19.8526 22.6408 19.806 22.6874L15.1147 27.2699C14.9128 27.4641 14.5865 27.4641 14.3924 27.2699L7.75936 20.8155C7.55743 20.6214 7.55743 20.3029 7.75936 20.1087L9.22733 18.6796C9.42924 18.4855 9.75551 18.4855 9.94969 18.6796L14.641 23.2622C14.6875 23.3087 14.773 23.3087 14.8196 23.2622L19.5108 18.6796C19.7128 18.4855 20.039 18.4855 20.2331 18.6796L24.9244 23.2622C24.9711 23.3087 25.0564 23.3087 25.1031 23.2622L29.7943 18.6796C30.0118 18.4855 30.3381 18.4855 30.54 18.6796Z" fill="white"/>
</g>
<defs>
<radialGradient id="paint0_radial_560_750" cx="0" cy="0" r="1" gradientUnits="userSpaceOnUse" gradientTransform="translate(0.000123255 19.8841) scale(39.767)">
<stop stop-color="#5D9DF6"/>
<stop offset="1" stop-color="#006FFF"/>
</radialGradient>
<clipPath id="clip0_560_750">
<rect width="40" height="40" fill="white"/>
</clipPath>
</defs>
</svg>
